<svg width="763" height="774" xmlns="http://www.w3.org/2000/svg" xmlns:xlink="http://www.w3.org/1999/xlink"
    overflow="hidden">
    <style>
        @import url("https://fonts.googleapis.com/css?family=Roboto");
    </style>
    <defs>
        <clipPath id="clip0">
            <rect x="535" y="159" width="763" height="774" />
        </clipPath>
    </defs>
    <g clip-path="url(#clip0)" transform="translate(-535 -159)">
        <path
            d="M885.222 612.879 878.406 589.867 875.209 578.272 872.386 566.605 869.939 554.806 867.99 542.927 866.732 530.85 866.166 518.583 866.355 506.128 867.298 493.556 868.868 480.872 871 468.016 873.443 455.171 876.262 442.205 881.564 419.775 884.16 420.388 878.86 442.807 878.865 442.783 876.053 455.721 876.06 455.687 873.622 468.499 873.628 468.468 871.503 481.281 871.511 481.226 869.948 493.851 869.955 493.787 869.017 506.287 869.021 506.208 868.833 518.583 868.832 518.501 869.394 530.689 869.389 530.612 870.639 542.612 870.628 542.534 872.566 554.347 872.556 554.292 874.993 566.042 874.984 565.999 877.796 577.624 877.785 577.583 880.973 589.146 880.966 589.121 887.779 612.121ZM874.462 429.93 883.708 416.501 885.964 432.649C886.065 433.378 885.557 434.052 884.827 434.154 884.098 434.255 883.424 433.747 883.322 433.018L881.542 420.266 883.96 420.838 876.658 431.442C876.241 432.049 875.41 432.202 874.804 431.784 874.197 431.367 874.044 430.536 874.462 429.93Z" />
        <path
            d="M948.779 416.121 955.595 439.134 958.791 450.729 961.614 462.395 964.061 474.194 966.01 486.073 967.268 498.15 967.834 510.417 967.645 522.873 966.702 535.444 965.132 548.129 963 560.984 960.557 573.829 957.738 586.795 952.436 609.225 949.841 608.612 955.14 586.193 955.135 586.217 957.947 573.279 957.94 573.313 960.378 560.501 960.372 560.532 962.497 547.719 962.489 547.774 964.052 535.149 964.045 535.213 964.983 522.713 964.979 522.792 965.167 510.417 965.168 510.499 964.606 498.312 964.611 498.388 963.361 486.388 963.372 486.466 961.434 474.653 961.445 474.708 959.007 462.958 959.017 463.001 956.204 451.376 956.215 451.417 953.027 439.854 953.034 439.879 946.222 416.879ZM959.538 599.07 950.292 612.499 948.037 596.351C947.935 595.622 948.443 594.948 949.173 594.847 949.902 594.745 950.576 595.253 950.678 595.983L952.459 608.734 950.04 608.163 957.342 597.558C957.76 596.951 958.59 596.798 959.196 597.216 959.803 597.634 959.956 598.464 959.538 599.07Z" />
        <text fill="#F9CA01" font-family="Roboto,Roboto_MSFontService,sans-serif" font-weight="700" font-size="37"
            transform="translate(864.039 206)">Signal</text>
        <path
            d="M885.261 363.993 878.443 346.853 875.24 338.187 872.411 329.448 869.956 320.698 867.999 311.735 866.735 302.696 866.166 293.528 866.356 284.232 867.303 274.824 868.878 265.308 871.016 255.752 873.464 246.148 876.287 236.486 881.325 220.605 883.867 221.411 878.833 237.278 878.842 237.249 876.03 246.874 876.042 246.829 873.605 256.392 873.614 256.354 871.489 265.854 871.503 265.78 869.94 275.218 869.952 275.134 869.014 284.446 869.021 284.34 868.833 293.527 868.831 293.417 869.393 302.48 869.383 302.378 870.633 311.315 870.615 311.216 872.553 320.091 872.534 320.015 874.971 328.702 874.956 328.652 877.769 337.339 877.751 337.288 880.938 345.913 880.926 345.882 887.739 363.007ZM873.481 230.199 883.708 217.501 884.746 233.772C884.793 234.507 884.235 235.141 883.501 235.188 882.766 235.235 882.132 234.677 882.085 233.942L881.265 221.093 883.634 221.844 875.558 231.871C875.096 232.445 874.256 232.535 873.683 232.073 873.109 231.612 873.019 230.772 873.481 230.199Z" />
        <path
            d="M948.739 217.007 955.558 234.147 958.76 242.813 961.589 251.552 964.044 260.302 966.001 269.265 967.265 278.304 967.834 287.472 967.645 296.768 966.697 306.176 965.122 315.692 962.984 325.248 960.536 334.852 957.713 344.514 952.675 360.395 950.133 359.589 955.167 343.722 955.158 343.751 957.97 334.126 957.958 334.171 960.396 324.608 960.386 324.646 962.511 315.146 962.497 315.22 964.06 305.782 964.048 305.866 964.986 296.554 964.979 296.66 965.167 287.473 965.169 287.583 964.607 278.52 964.617 278.622 963.367 269.685 963.385 269.784 961.447 260.909 961.466 260.985 959.029 252.298 959.044 252.348 956.232 243.661 956.249 243.712 953.062 235.087 953.074 235.118 946.261 217.993ZM960.519 350.801 950.292 363.499 949.254 347.228C949.207 346.493 949.765 345.859 950.5 345.812 951.234 345.765 951.868 346.323 951.915 347.058L952.735 359.907 950.366 359.156 958.443 349.129C958.904 348.555 959.744 348.465 960.317 348.927 960.891 349.389 960.981 350.228 960.519 350.801Z" />
        <rect x="782" y="269" width="269" height="39" fill="#FFFFFF" /><text
            font-family="Roboto Light,Roboto Light_MSFontService,sans-serif" font-weight="300" font-size="32"
            transform="translate(792.456 299)">Signal processing<tspan fill="#CC0D24"
                font-family="Roboto,Roboto_MSFontService,sans-serif" font-weight="700" font-size="37" x="15.0833"
                y="352">Temperature</tspan>
            <tspan fill="#753576" font-family="Roboto,Roboto_MSFontService,sans-serif" font-weight="700" font-size="37"
                x="30.8333" y="556">Quantities</tspan>
            <tspan fill="#753576" font-family="Roboto,Roboto_MSFontService,sans-serif" font-weight="700" font-size="37"
                x="202.667" y="556">-</tspan>
            <tspan fill="#753576" font-family="Roboto,Roboto_MSFontService,sans-serif" font-weight="700" font-size="37"
                x="34.4133" y="601">of</tspan>
            <tspan fill="#753576" font-family="Roboto,Roboto_MSFontService,sans-serif" font-weight="700" font-size="37"
                x="68.9133" y="601">-</tspan>
            <tspan fill="#753576" font-family="Roboto,Roboto_MSFontService,sans-serif" font-weight="700" font-size="37"
                x="83.4133" y="601">Interest</tspan>
        </text>
        <rect x="761" y="453" width="311" height="71" fill="#FFFFFF" /><text
            font-family="Roboto Light,Roboto Light_MSFontService,sans-serif" font-weight="300" font-size="32"
            transform="translate(768.206 483)">Spectroscopic model<tspan fill="#A6A6A6" font-size="27" x="82.92" y="34">
                (@Smodel)</tspan>
            <tspan fill="#F22F47" font-family="Roboto,Roboto_MSFontService,sans-serif" font-weight="700" font-size="37"
                x="22" y="-87">Incandescence</tspan>
        </text>
        <path d="M726.5 587.5C793.928 585.869 878.68 587.766 872.144 558.5" stroke="#000000" stroke-width="2.66667"
            stroke-miterlimit="8" fill="none" fill-rule="evenodd" /><text fill="#27BC74"
            font-family="Roboto,Roboto_MSFontService,sans-serif" font-weight="700" font-size="37"
            transform="translate(664.93 598)">ISF</text>
        <path
            d="M3.56998 32.3952 9.92362 31.9186 20.9559 31.4799 32.7813 31.167 45.0353 30.9169 45.0261 30.9172 70.2136 30.2297 70.1827 30.2309 82.5577 29.6059 82.5211 29.6082 94.5211 28.6707 94.4641 28.6764 105.777 27.3014 105.709 27.3113 116.147 25.4988 116.037 25.5226 125.35 23.0851 125.249 23.1159 129.374 21.6784 129.265 21.7216 133.015 20.0341 132.932 20.0753 136.307 18.2628 136.171 18.3463 139.109 16.2838 138.957 16.4077 141.395 14.0952 141.271 14.2296 143.271 11.7296 143.142 11.924 144.642 9.17403 144.532 9.43917 145.407 6.43917 145.36 6.68488 145.673 3.43488 145.671 3.66615 145.393 0.103646 148.052-0.103646 148.338 3.57458 148.003 7.0652 147.052 10.3243 145.427 13.3039 143.297 15.9668 140.721 18.4098 137.638 20.5745 134.152 22.4467 130.306 24.1774 126.076 25.6515 116.658 28.1166 106.132 29.9445 94.7574 31.327 82.7106 32.2682 70.3018 32.8949 45.0943 33.583 32.8397 33.8331 32.8478 33.8329 21.0353 34.1454 21.053 34.1448 10.053 34.5823 10.0997 34.5796 3.76942 35.0544ZM15.5961 38.7562 0.00128978 33.9999 14.7122 26.9706C15.3766 26.6532 16.1726 26.9344 16.4901 27.5989 16.8076 28.2633 16.5263 29.0593 15.8619 29.3768L4.24454 34.9278 4.05866 32.4494 16.3741 36.2056C17.0784 36.4204 17.4753 37.1655 17.2604 37.8699 17.0456 38.5742 16.3005 38.9711 15.5961 38.7562Z"
            transform="matrix(-1 0 0 1 1109.5 553.5)" /><text fill="#27BC74"
            font-family="Roboto,Roboto_MSFontService,sans-serif" font-weight="700" font-size="37"
            transform="translate(1113.65 598)">ISF</text>
        <path
            d="M885.261 819.993 878.443 802.853 875.24 794.187 872.411 785.448 869.956 776.698 867.999 767.735 866.735 758.696 866.166 749.528 866.356 740.232 867.303 730.824 868.878 721.308 871.016 711.752 873.464 702.148 876.287 692.486 881.325 676.605 883.867 677.411 878.833 693.278 878.842 693.249 876.03 702.874 876.042 702.829 873.605 712.392 873.614 712.354 871.489 721.854 871.503 721.78 869.94 731.218 869.952 731.134 869.014 740.446 869.021 740.34 868.833 749.527 868.831 749.417 869.393 758.48 869.383 758.378 870.633 767.315 870.615 767.216 872.553 776.091 872.534 776.015 874.971 784.702 874.956 784.652 877.769 793.339 877.751 793.288 880.938 801.913 880.926 801.882 887.739 819.007ZM873.481 686.199 883.708 673.501 884.746 689.772C884.793 690.507 884.235 691.141 883.501 691.188 882.766 691.235 882.132 690.677 882.085 689.942L881.265 677.093 883.634 677.844 875.558 687.871C875.096 688.445 874.256 688.535 873.683 688.073 873.109 687.612 873.019 686.772 873.481 686.199Z" />
        <path
            d="M948.739 673.007 955.558 690.147 958.76 698.813 961.589 707.552 964.044 716.302 966.001 725.265 967.265 734.304 967.834 743.472 967.645 752.768 966.697 762.176 965.122 771.692 962.984 781.248 960.536 790.852 957.713 800.514 952.675 816.395 950.133 815.589 955.167 799.722 955.158 799.751 957.97 790.126 957.958 790.171 960.396 780.608 960.386 780.646 962.511 771.146 962.497 771.22 964.06 761.782 964.048 761.867 964.986 752.554 964.979 752.66 965.167 743.473 965.169 743.583 964.607 734.52 964.617 734.622 963.367 725.685 963.385 725.784 961.447 716.909 961.466 716.985 959.029 708.298 959.044 708.348 956.232 699.661 956.249 699.712 953.062 691.087 953.074 691.118 946.261 673.993ZM960.519 806.801 950.292 819.499 949.254 803.228C949.207 802.493 949.765 801.859 950.5 801.812 951.234 801.765 951.868 802.323 951.915 803.058L952.735 815.907 950.366 815.156 958.443 805.129C958.904 804.555 959.744 804.465 960.317 804.927 960.891 805.389 960.981 806.228 960.519 806.801Z" />
        <rect x="761" y="708" width="311" height="71" fill="#FFFFFF" /><text
            font-family="Roboto Light,Roboto Light_MSFontService,sans-serif" font-weight="300" font-size="32"
            transform="translate(776.373 738)">Heat transfer <tspan font-size="32" x="192.333" y="0">model</tspan>
            <tspan fill="#A6A6A6" font-size="27" x="65.5867" y="34">(@HTModel)</tspan>
        </text>
        <path d="M1203 800.9 1215.25 800.9 1215.25 261 1239.75 261 1239.75 800.9 1252 800.9 1227.5 845Z"
            stroke="#000000" stroke-width="2" stroke-miterlimit="8" fill="#D9D9D9" fill-rule="evenodd" /><text
            font-family="Roboto Light,Roboto Light_MSFontService,sans-serif" font-weight="300" font-size="32"
            transform="matrix(6.12323e-17 1 -1 6.12323e-17 1257.4 411)">Inverse problem</text>
        <path d="M0 539.9 12.2498 539.9 12.2498 0 36.7502 0 36.7502 539.9 49 539.9 24.5003 584Z" stroke="#000000"
            stroke-width="2" stroke-miterlimit="8" fill="#D9D9D9" fill-rule="evenodd"
            transform="matrix(1 0 0 -1 585 845)" /><text
            font-family="Roboto Light,Roboto Light_MSFontService,sans-serif" font-weight="300" font-size="32"
            transform="matrix(-1.83697e-16 -1 1 -1.83697e-16 575.513 644)">Forward problem</text></g>
</svg>