<svg width="1432" height="1023" xmlns="http://www.w3.org/2000/svg" xmlns:xlink="http://www.w3.org/1999/xlink"
    overflow="hidden">
    <style>
        @import url("https://fonts.googleapis.com/css?family=Roboto");
    </style>
    <defs>
        <clipPath id="clip0">
            <rect x="214" y="31" width="1432" height="1023" />
        </clipPath>
        <linearGradient x1="641.5" y1="142.5" x2="641.5" y2="265.5" gradientUnits="userSpaceOnUse"
            spreadMethod="reflect" id="fill1">
            <stop offset="0" stop-color="#F22F47" stop-opacity="0.701961" />
            <stop offset="0.25" stop-color="#F9CA01" stop-opacity="0.701961" />
            <stop offset="0.5" stop-color="#27BC74" stop-opacity="0.701961" />
            <stop offset="0.75" stop-color="#2BC2D4" stop-opacity="0.701961" />
            <stop offset="1" stop-color="#9C479D" stop-opacity="0.701961" />
        </linearGradient>
        <linearGradient x1="747.5" y1="204" x2="535.5" y2="204" gradientUnits="userSpaceOnUse" spreadMethod="reflect"
            id="fill2">
            <stop offset="0" stop-color="#FEE57A" stop-opacity="0.8" />
            <stop offset="0.22" stop-color="#FEE57A" stop-opacity="0.8" />
            <stop offset="0.87" stop-color="#FEE57A" stop-opacity="0" />
            <stop offset="1" stop-color="#FEE57A" stop-opacity="0" />
        </linearGradient>
    </defs>
    <g clip-path="url(#clip0)" transform="translate(-214 -31)">
        <path
            d="M417.5 594.673C417.5 587.95 422.95 582.5 429.673 582.5L798.328 582.5C805.05 582.5 810.5 587.95 810.5 594.673L810.5 921.328C810.5 928.05 805.05 933.5 798.328 933.5L429.673 933.5C422.95 933.5 417.5 928.05 417.5 921.328Z"
            stroke="#000000" stroke-width="4.66667" stroke-miterlimit="8" stroke-dasharray="14 4.66667" fill="#F7F7F7"
            fill-rule="evenodd" />
        <path
            d="M347.424 815.161C364.59 819.065 381.756 822.97 397.332 819.603 412.909 816.235 431.205 795.379 440.884 794.955 450.564 794.531 452.987 805.794 455.409 817.058"
            stroke="#000000" stroke-width="4.66667" stroke-miterlimit="8" fill="none" fill-rule="evenodd" />
        <path
            d="M455.036 753.796C437.444 754.467 422.885 788.824 406.17 795.37 389.455 801.917 374.312 799.505 354.745 793.077"
            stroke="#000000" stroke-width="4.66667" stroke-miterlimit="8" fill="none" fill-rule="evenodd" />
        <rect x="644.5" y="720.5" width="99" height="9" stroke="#000000" stroke-miterlimit="8" fill="#27BC74" />
        <rect x="614.5" y="720.5" width="33" height="9" stroke="#000000" stroke-miterlimit="8" fill="#27BC74" />
        <path d="M737.5 624.5 745.5 624.5 745.5 718.94 739.523 723.5 737.5 723.5Z" fill="#FEE164" fill-rule="evenodd" />
        <path
            d="M737 624.5C737 624.224 737.224 624 737.5 624L745.5 624C745.776 624 746 624.224 746 624.5L746 718.94C746 719.096 745.927 719.243 745.803 719.338L739.826 723.898C739.739 723.964 739.633 724 739.523 724L737.5 724C737.224 724 737 723.776 737 723.5ZM738 723.5 737.5 723 739.523 723 739.22 723.103 745.197 718.543 745 718.94 745 624.5 745.5 625 737.5 625 738 624.5Z" />
        <rect x="576.5" y="855.5" width="70" height="8" stroke="#000000" stroke-miterlimit="8" fill="#07AED5" />
        <path
            d="M737.357 722.5 745.5 722.5 745.5 860.417 737.357 868.5 737.357 863.435 642.5 863.435 642.5 854.286 737.357 854.286Z"
            stroke="#000000" stroke-miterlimit="8" fill="#07AED5" fill-rule="evenodd" />
        <path
            d="M705.299 752.933C704.609 752.242 704.609 751.122 705.299 750.432L770.381 685.35C771.071 684.66 772.191 684.66 772.882 685.35L777.884 690.352C778.574 691.043 778.574 692.162 777.884 692.853L712.802 757.934C712.112 758.625 710.992 758.625 710.301 757.934Z"
            stroke="#000000" stroke-width="2" stroke-miterlimit="8" fill="#E1F7FF" fill-rule="evenodd" />
        <path
            d="M706.252 891.32C705.562 890.629 705.562 889.509 706.252 888.819L771.334 823.737C772.024 823.047 773.144 823.047 773.835 823.737L778.836 828.739C779.527 829.43 779.527 830.549 778.836 831.24L713.755 896.321C713.064 897.012 711.945 897.012 711.254 896.321Z"
            stroke="#000000" stroke-width="2" stroke-miterlimit="8" fill="#E1F7FF" fill-rule="evenodd" />
        <path
            d="M649.833 688C651.03 688 652 688.97 652 690.167L652 755.833C652 757.03 651.03 758 649.833 758L641.167 758C639.97 758 639 757.03 639 755.833L639 690.167C639 688.97 639.97 688 641.167 688Z"
            stroke="#000000" stroke-width="2" stroke-miterlimit="8" fill="#E1F7FF" fill-rule="evenodd" />
        <path
            d="M444 692.667C444 684.014 451.014 677 459.667 677L605.333 677C613.986 677 621 684.014 621 692.667L621 755.333C621 763.986 613.986 771 605.333 771L459.667 771C451.014 771 444 763.986 444 755.333Z"
            stroke="#000000" stroke-width="4" stroke-miterlimit="8" fill="#27BC74" fill-rule="evenodd" />
        <rect x="461.5" y="689.5" width="142" height="69" stroke="#000000" stroke-width="2.66667" stroke-miterlimit="8"
            fill="#FFFFFF" />
        <path
            d="M444 826.667C444 818.014 451.014 811 459.667 811L605.333 811C613.986 811 621 818.014 621 826.667L621 889.333C621 897.986 613.986 905 605.333 905L459.667 905C451.014 905 444 897.986 444 889.333Z"
            stroke="#000000" stroke-width="4" stroke-miterlimit="8" fill="#07AED5" fill-rule="evenodd" />
        <rect x="461.5" y="824.5" width="143" height="69" stroke="#000000" stroke-width="2.66667" stroke-miterlimit="8"
            fill="#FFFFFF" /><text font-family="Roboto,Roboto_MSFontService,sans-serif" font-weight="700" font-size="27"
            transform="translate(503.82 717)">PMT<tspan font-family="Roboto Light,Roboto Light_MSFontService,sans-serif"
                font-weight="300" font-size="27" x="-29.9133" y="32">Channel 1</tspan>
            <tspan font-size="27" x="0" y="134">PMT</tspan>
            <tspan font-family="Roboto Light,Roboto Light_MSFontService,sans-serif" font-weight="300" font-size="27"
                x="-29.9133" y="166">Channel 2</tspan>
        </text>
        <path
            d="M649.833 823C651.03 823 652 823.97 652 825.167L652 891.833C652 893.03 651.03 894 649.833 894L641.167 894C639.97 894 639 893.03 639 891.833L639 825.167C639 823.97 639.97 823 641.167 823Z"
            stroke="#000000" stroke-width="2" stroke-miterlimit="8" fill="#E1F7FF" fill-rule="evenodd" />
        <path
            d="M443.5 103.544C443.5 95.7878 449.788 89.5001 457.544 89.5001L925.456 89.5001C933.212 89.5001 939.5 95.7878 939.5 103.544L939.5 338.456C939.5 346.212 933.212 352.5 925.456 352.5L457.544 352.5C449.788 352.5 443.5 346.212 443.5 338.456Z"
            stroke="#000000" stroke-width="4.66667" stroke-miterlimit="8" stroke-dasharray="14 4.66667" fill="#F7F7F7"
            fill-rule="evenodd" /><text font-family="Roboto,Roboto_MSFontService,sans-serif" font-weight="700"
            font-size="37" transform="translate(261.423 617)">Detector <tspan font-size="37" x="-16" y="45">assembly
            </tspan>
            <tspan font-family="Roboto Light,Roboto Light_MSFontService,sans-serif" font-weight="300" font-size="37"
                x="282.805" y="360">Bandpass </tspan>
            <tspan font-family="Roboto Light,Roboto Light_MSFontService,sans-serif" font-weight="300" font-size="37"
                x="353.472" y="405">filters</tspan>
        </text>
        <path d="M726.216 969.5 715.5 969.5" stroke="#000000" stroke-width="2.66667" stroke-linecap="round"
            stroke-miterlimit="8" fill="none" fill-rule="evenodd" />
        <path
            d="M726.146 970.773 657.619 878.251C657.18 877.659 657.305 876.824 657.897 876.386 658.488 875.947 659.323 876.072 659.762 876.664L728.289 969.186C728.727 969.777 728.602 970.612 728.011 971.051 727.419 971.489 726.584 971.364 726.146 970.773ZM660.796 890.229 656.501 874.501 670.294 883.195C670.917 883.588 671.103 884.411 670.711 885.034 670.318 885.657 669.495 885.843 668.872 885.451L657.979 878.585 659.977 877.106 663.369 889.527C663.563 890.237 663.144 890.97 662.434 891.164 661.723 891.358 660.99 890.94 660.796 890.229Z" />
        <path
            d="M726.023 969.732 647.587 767.413C647.321 766.726 647.662 765.954 648.348 765.688 649.035 765.422 649.807 765.762 650.073 766.449L728.509 968.768C728.776 969.455 728.435 970.227 727.748 970.493 727.062 970.76 726.289 970.419 726.023 969.732ZM647.483 779.805 647.5 763.501 658.503 775.533C659 776.077 658.962 776.92 658.419 777.417 657.875 777.914 657.032 777.876 656.535 777.333L647.846 767.831 650.164 766.933 650.15 779.808C650.149 780.544 649.552 781.141 648.815 781.14 648.079 781.139 647.483 780.542 647.483 779.805Z" />
        <text font-family="Roboto Light,Roboto Light_MSFontService,sans-serif" font-weight="300" font-size="37"
            transform="translate(902.084 745)">Dichroic <tspan font-size="37" x="0" y="45">mirror</tspan></text>
        <path d="M0 0 10.7164 0.000104987" stroke="#000000" stroke-width="2.66667" stroke-linecap="round"
            stroke-miterlimit="8" fill="none" fill-rule="evenodd" transform="matrix(1 0 0 -1 882.5 733.5)" />
        <path
            d="M882.507 735.126 768.849 712.525C768.127 712.382 767.658 711.68 767.801 710.958 767.945 710.235 768.647 709.766 769.369 709.91L883.027 732.511C883.749 732.654 884.219 733.356 884.075 734.079 883.931 734.801 883.229 735.27 882.507 735.126ZM779.253 719.26 765.501 710.5 781.557 707.668C782.283 707.54 782.974 708.024 783.102 708.749 783.23 709.475 782.746 710.166 782.021 710.294L769.341 712.531 769.826 710.093 780.685 717.011C781.306 717.406 781.489 718.23 781.093 718.852 780.698 719.473 779.874 719.655 779.253 719.26Z" />
        <text font-family="Roboto Light,Roboto Light_MSFontService,sans-serif" font-weight="300" font-size="37"
            transform="translate(248.481 454)">Beam <tspan font-size="37" x="0.166672" y="45">dump</tspan>
            <tspan font-size="37" x="607.64" y="115">Collecting lens</tspan>
        </text>
        <path d="M0 0 10.7164 0.000104987" stroke="#000000" stroke-width="2.66667" stroke-linecap="round"
            stroke-miterlimit="8" fill="none" fill-rule="evenodd" transform="matrix(1 0 0 -1 837.5 557.5)" />
        <path
            d="M836.299 558.151 780.583 539.912C779.883 539.683 779.501 538.93 779.73 538.23 779.959 537.53 780.712 537.149 781.412 537.378L837.128 555.617C837.828 555.846 838.21 556.599 837.981 557.299 837.752 557.998 836.999 558.38 836.299 558.151ZM790.104 547.844 777.501 537.5 793.781 536.612C794.516 536.572 795.145 537.135 795.185 537.87 795.225 538.606 794.662 539.234 793.926 539.275L781.07 539.976 781.843 537.614 791.796 545.783C792.365 546.25 792.448 547.09 791.981 547.659 791.514 548.228 790.673 548.311 790.104 547.844Z" />
        <text font-family="Roboto Light,Roboto Light_MSFontService,sans-serif" font-weight="300" font-size="37"
            transform="translate(853.799 627)">Aperture</text>
        <path d="M0 0 10.7163 0.000104987" stroke="#000000" stroke-width="2.66667" stroke-linecap="round"
            stroke-miterlimit="8" fill="none" fill-rule="evenodd" transform="matrix(1 0 0 -1 835.5 615.5)" />
        <path
            d="M834.403 617.136 766.072 612.1C765.338 612.046 764.786 611.407 764.84 610.673 764.895 609.938 765.534 609.387 766.268 609.441L834.599 614.476C835.334 614.53 835.885 615.169 835.831 615.904 835.777 616.638 835.138 617.19 834.403 617.136ZM777.221 617.51 762.501 610.5 778.09 605.724C778.794 605.508 779.54 605.904 779.755 606.608 779.971 607.312 779.575 608.057 778.871 608.273L766.561 612.045 766.743 609.567 778.368 615.103C779.033 615.419 779.315 616.215 778.998 616.88 778.682 617.545 777.886 617.827 777.221 617.51Z" />
        <text font-family="Roboto Light,Roboto Light_MSFontService,sans-serif" font-weight="300" font-size="37"
            transform="translate(1362.13 346)">Polarizer</text>
        <path d="M0 0 10.7164 0.000104987" stroke="#000000" stroke-width="2.66667" stroke-linecap="round"
            stroke-miterlimit="8" fill="none" fill-rule="evenodd" transform="matrix(1 0 0 -1 1343.5 335.5)" />
        <path
            d="M1.27505-0.389908 24.7997 76.5385C25.015 77.2427 24.6187 77.9881 23.9145 78.2035 23.2103 78.4188 22.4649 78.0225 22.2496 77.3183L-1.27505 0.389908C-1.49039-0.314282-1.0941-1.05971-0.389908-1.27505 0.314282-1.49039 1.05971-1.0941 1.27505-0.389908ZM25.8079 64.1874 24.6005 80.4466 14.5058 67.6435C14.0499 67.0653 14.1491 66.2269 14.7273 65.771 15.3056 65.315 16.1439 65.4142 16.5999 65.9924L24.5717 76.1032 22.195 76.83 23.1485 63.9899C23.2031 63.2555 23.8426 62.7044 24.5769 62.7589 25.3113 62.8135 25.8624 63.453 25.8079 64.1874Z"
            transform="matrix(-1 0 0 1 1343.1 335.5)" /><text font-family="Roboto,Roboto_MSFontService,sans-serif"
            font-weight="700" font-size="37" transform="translate(454.282 78)">Spectrometer</text><text
            font-family="Roboto Light,Roboto Light_MSFontService,sans-serif" font-weight="300" font-size="37"
            transform="matrix(-1.83697e-16 -1 1 -1.83697e-16 524.466 274)">Detector</text><text
            font-family="Roboto Light,Roboto Light_MSFontService,sans-serif" font-weight="300" font-size="37"
            transform="translate(822.873 425)">Particles</text>
        <path d="M0 0 10.7164 0.000104987" stroke="#000000" stroke-width="2.66667" stroke-linecap="round"
            stroke-miterlimit="8" fill="none" fill-rule="evenodd" transform="matrix(1 0 0 -1 804.5 413.5)" />
        <path
            d="M0.899583-0.984139 36.4103 31.4755C36.9538 31.9723 36.9916 32.8157 36.4948 33.3592 35.998 33.9027 35.1546 33.9406 34.6111 33.4438L-0.899583 0.984139C-1.44311 0.487313-1.48096-0.356058-0.984139-0.899583-0.487313-1.44311 0.356058-1.48096 0.899583-0.984139ZM30.9971 20.3277 38.2259 34.9416 23.0231 29.0511C22.3365 28.7851 21.9955 28.0128 22.2616 27.3261 22.5276 26.6395 23.2999 26.2985 23.9866 26.5646L35.9924 31.2163 34.3155 33.0508 28.6068 21.5101C28.2803 20.85 28.5507 20.0503 29.2108 19.7238 29.8708 19.3973 30.6706 19.6677 30.9971 20.3277Z"
            transform="matrix(-1 0 0 1 803.727 413.5)" />
        <rect x="742" y="609" width="17" height="3" />
        <rect x="723" y="609" width="17" height="3" />
        <path d="M722.5 538.5 740.802 470.5 742.198 470.5 760.5 538.5Z" fill="#FEE164" fill-rule="evenodd" />
        <path
            d="M722.5 539C722.345 539 722.198 538.928 722.103 538.804 722.009 538.681 721.977 538.52 722.017 538.37L740.319 470.37C740.378 470.152 740.576 470 740.802 470L742.198 470C742.424 470 742.622 470.152 742.681 470.37L760.983 538.37C761.023 538.52 760.992 538.681 760.897 538.804 760.802 538.928 760.656 539 760.5 539ZM760.5 538 760.017 538.63 741.715 470.63 742.198 471 740.802 471 741.285 470.63 722.983 538.63 722.5 538Z" />
        <path d="M0 68 18.3019 0 19.6981 0 38 68Z" fill="#FEE164" fill-rule="evenodd"
            transform="matrix(1 0 0 -1 722.5 467.5)" />
        <path
            d="M0 68.5C-0.155543 68.5-0.302227 68.4276-0.396846 68.3042-0.491466 68.1807-0.523243 68.0202-0.482818 67.87L17.8191-0.129949C17.8779-0.348274 18.0758-0.5 18.3019-0.5L19.6981-0.5C19.9242-0.5 20.1221-0.348274 20.1809-0.129949L38.4828 67.87C38.5232 68.0202 38.4915 68.1807 38.3968 68.3042 38.3022 68.4276 38.1555 68.5 38 68.5ZM38 67.5 37.5172 68.1299 19.2153 0.129949 19.6981 0.5 18.3019 0.5 18.7847 0.129949 0.482818 68.1299 0 67.5Z"
            transform="matrix(1 0 0 -1 722.5 467.5)" />
        <path d="M722.5 538.5 760.5 538.5 743.115 609.835 746.689 624.5 736.311 624.5 739.885 609.835Z" fill="#FEE164"
            fill-rule="evenodd" />
        <path
            d="M722.014 538.618C721.978 538.469 722.012 538.312 722.107 538.191 722.202 538.07 722.347 538 722.5 538L760.5 538C760.654 538 760.798 538.07 760.893 538.191 760.988 538.312 761.022 538.469 760.986 538.618L743.601 609.953 743.601 609.716 747.175 624.382C747.211 624.531 747.177 624.688 747.082 624.809 746.987 624.93 746.842 625 746.689 625L736.311 625C736.158 625 736.013 624.93 735.918 624.809 735.823 624.688 735.789 624.531 735.826 624.382L739.4 609.716 739.4 609.953ZM740.371 609.716C740.39 609.794 740.39 609.875 740.371 609.953L736.797 624.618 736.311 624 746.689 624 746.203 624.618 742.629 609.953C742.61 609.875 742.61 609.794 742.629 609.716L760.014 538.382 760.5 539 722.5 539 722.986 538.382Z" />
        <path
            d="M23.9488 11C31.9585 11 39.2099 9.82747 44.4589 7.93181L48 6.03505 48 4.965 44.4589 3.06819C39.2099 1.17253 31.9585 0 23.9488 0 15.9391 0 8.6877 1.17253 3.43864 3.06819L0 4.91012 0 6.08988 3.43864 7.93181C8.6877 9.82747 15.9391 11 23.9488 11Z"
            stroke="#000000" stroke-width="2" stroke-miterlimit="8" fill="#E1F7FF" fill-rule="evenodd"
            transform="matrix(1 0 0 -1 717 543)" />
        <path
            d="M761.5 535.043C761.5 533.639 762.639 532.5 764.043 532.5L770.957 532.5C772.362 532.5 773.5 533.639 773.5 535.043L773.5 541.957C773.5 543.361 772.362 544.5 770.957 544.5L764.043 544.5C762.639 544.5 761.5 543.361 761.5 541.957Z"
            stroke="#000000" stroke-width="4.66667" stroke-miterlimit="8" fill="#F2F2F2" fill-rule="evenodd" />
        <path
            d="M709.5 535.043C709.5 533.639 710.639 532.5 712.043 532.5L718.957 532.5C720.362 532.5 721.5 533.639 721.5 535.043L721.5 541.957C721.5 543.361 720.362 544.5 718.957 544.5L712.043 544.5C710.639 544.5 709.5 543.361 709.5 541.957Z"
            stroke="#000000" stroke-width="4.66667" stroke-miterlimit="8" fill="#F2F2F2" fill-rule="evenodd" />
        <path d="M0 0 38 0 20.6148 71.3347 24.1889 86 13.8112 86 17.3854 71.3347Z" fill="#FEE164" fill-rule="evenodd"
            transform="matrix(1 0 0 -1 722.5 399.5)" />
        <path
            d="M-0.485781 0.118392C-0.522115-0.0306917-0.487981-0.188204-0.39319-0.308872-0.298398-0.42954-0.153448-0.5 0-0.5L38-0.5C38.1534-0.5 38.2984-0.42954 38.3932-0.308872 38.488-0.188204 38.5221-0.0306929 38.4858 0.118391L21.1006 71.4531 21.1006 71.2163 24.6747 85.8816C24.7111 86.0307 24.6769 86.1882 24.5821 86.3089 24.4873 86.4295 24.3424 86.5 24.1889 86.5L13.8112 86.5C13.6578 86.5 13.5128 86.4295 13.4181 86.3089 13.3233 86.1882 13.2891 86.0307 13.3255 85.8816L16.8996 71.2163 16.8996 71.4531ZM17.8712 71.2163C17.8901 71.2941 17.8901 71.3753 17.8712 71.4531L14.297 86.1184 13.8112 85.5 24.1889 85.5 23.7032 86.1184 20.129 71.4531C20.1101 71.3753 20.1101 71.2941 20.129 71.2163L37.5142-0.118391 38 0.5 0 0.5 0.485781-0.118392Z"
            transform="matrix(1 0 0 -1 722.5 399.5)" />
        <path
            d="M740.949 405C748.958 405 756.21 403.827 761.459 401.932L765 400.035 765 398.965 761.459 397.068C756.21 395.173 748.958 394 740.949 394 732.939 394 725.688 395.173 720.439 397.068L717 398.91 717 400.09 720.439 401.932C725.688 403.827 732.939 405 740.949 405Z"
            stroke="#000000" stroke-width="2" stroke-miterlimit="8" fill="#E1F7FF" fill-rule="evenodd" />
        <path
            d="M0 2.54289C-3.8194e-16 1.13849 1.13849 -7.6388e-16 2.54289 -7.6388e-16L9.45711 0C10.8615 -7.6388e-16 12 1.13849 12 2.54289L12 9.45698C12 10.8614 10.8615 11.9999 9.45711 11.9999L2.54289 11.9999C1.13849 11.9999 -3.8194e-16 10.8614 0 9.45698Z"
            stroke="#000000" stroke-width="4.66667" stroke-miterlimit="8" fill="#F2F2F2" fill-rule="evenodd"
            transform="matrix(1 0 0 -1 761.5 405.5)" />
        <path
            d="M0 2.54289C-3.8194e-16 1.13849 1.13849 -7.6388e-16 2.54289 -7.6388e-16L9.45711 0C10.8615 -7.6388e-16 12 1.13849 12 2.54289L12 9.45698C12 10.8614 10.8615 11.9999 9.45711 11.9999L2.54289 11.9999C1.13849 11.9999 -3.8194e-16 10.8614 0 9.45698Z"
            stroke="#000000" stroke-width="4.66667" stroke-miterlimit="8" fill="#F2F2F2" fill-rule="evenodd"
            transform="matrix(1 0 0 -1 709.5 405.5)" />
        <rect x="0" y="0" width="20" height="4" transform="matrix(1 0 0 -1 742 329)" />
        <rect x="0" y="0" width="20" height="4" transform="matrix(1 0 0 -1 720 329)" />
        <path
            d="M36.921 18C49.2694 18 60.4487 16.0813 68.5408 12.9793L74 9.87554 74 8.12455 68.5408 5.02068C60.4487 1.91868 49.2694 0 36.921 0 24.5728 0 13.3935 1.91868 5.30124 5.02068L0 8.03474 0 9.96526 5.30124 12.9793C13.3935 16.0813 24.5728 18 36.921 18Z"
            stroke="#000000" stroke-width="2" stroke-miterlimit="8" fill="#E1F7FF" fill-rule="evenodd"
            transform="matrix(1 0 0 -1 704 635)" /><text
            font-family="Roboto Light,Roboto Light_MSFontService,sans-serif" font-weight="300" font-size="37"
            transform="translate(803.58 187)">Grating</text>
        <path d="M0 0 10.7164 0.000104987" stroke="#000000" stroke-width="2.66667" stroke-linecap="round"
            stroke-miterlimit="8" fill="none" fill-rule="evenodd" transform="matrix(1 0 0 -1 785.5 173.5)" />
        <path
            d="M0.882459-0.999522 25.5048 20.7391C26.0568 21.2264 26.1092 22.069 25.6218 22.621 25.1345 23.1731 24.2919 23.2255 23.7399 22.7381L-0.882459 0.999522C-1.43448 0.512153-1.48689-0.330439-0.999522-0.882459-0.512153-1.43448 0.330439-1.48689 0.882459-0.999522ZM19.9 9.68641 27.38 24.1733 12.0778 18.5462C11.3867 18.292 11.0325 17.5257 11.2866 16.8346 11.5408 16.1435 12.3071 15.7892 12.9982 16.0434L25.0825 20.4872 23.4376 22.3503 17.5305 10.9098C17.1927 10.2555 17.4492 9.45124 18.1035 9.1134 18.7578 8.77556 19.5621 9.0321 19.9 9.68641Z"
            transform="matrix(-1 0 0 1 784.881 173.5)" />
        <path d="M10 118 0 118 0 5.43474 7.47133 0 10 0Z" fill="#FEE164" fill-rule="evenodd"
            transform="matrix(-1 1.22465e-16 1.22465e-16 1 746.5 196.5)" />
        <path
            d="M10.5 118C10.5 118.276 10.2761 118.5 10 118.5L0 118.5C-0.276142 118.5-0.5 118.276-0.5 118L-0.5 5.43474C-0.5 5.27479-0.423473 5.12449-0.294123 5.0304L7.17721-0.404341C7.26268-0.466511 7.36565-0.5 7.47133-0.5L10-0.5C10.2761-0.5 10.5-0.276142 10.5 0ZM9.5 0 10 0.5 7.47133 0.5 7.76546 0.404341 0.294123 5.83909 0.5 5.43474 0.5 118 0 117.5 10 117.5 9.5 118Z"
            transform="matrix(-1 1.22465e-16 1.22465e-16 1 746.5 196.5)" />
        <path
            d="M741.407 322C755.925 322 769.068 319.762 778.582 316.143L785 312.521 785 310.479 778.582 306.857C769.068 303.238 755.925 301 741.407 301 726.89 301 713.746 303.238 704.233 306.857L698 310.374 698 312.626 704.233 316.143C713.746 319.762 726.89 322 741.407 322Z"
            stroke="#000000" stroke-width="2" stroke-miterlimit="8" fill="#E1F7FF" fill-rule="evenodd" />
        <path d="M535.5 142.5 733.026 194.846 747.5 209.318 535.5 265.5Z" fill="url(#fill1)" fill-rule="evenodd" />
        <path
            d="M535 142.5C535 142.345 535.072 142.199 535.195 142.104 535.318 142.009 535.478 141.977 535.628 142.017L733.154 194.363C733.239 194.386 733.317 194.43 733.379 194.493L747.854 208.964C747.98 209.091 748.029 209.275 747.983 209.448 747.936 209.621 747.801 209.755 747.628 209.801L535.628 265.983C535.478 266.023 535.318 265.991 535.195 265.896 535.072 265.802 535 265.655 535 265.5ZM536 265.5 535.372 265.017 747.372 208.835 747.146 209.672 732.672 195.2 732.897 195.33 535.372 142.983 536 142.5Z" />
        <path d="M535.5 142.5 733.026 194.846 747.5 209.318 535.5 265.5Z" fill="url(#fill2)" fill-rule="evenodd" />
        <path
            d="M535 142.5C535 142.345 535.072 142.199 535.195 142.104 535.318 142.009 535.478 141.977 535.628 142.017L733.154 194.363C733.239 194.386 733.317 194.43 733.379 194.493L747.854 208.964C747.98 209.091 748.029 209.275 747.983 209.448 747.936 209.621 747.801 209.755 747.628 209.801L535.628 265.983C535.478 266.023 535.318 265.991 535.195 265.896 535.072 265.802 535 265.655 535 265.5ZM536 265.5 535.372 265.017 747.372 208.835 747.146 209.672 732.672 195.2 732.897 195.33 535.372 142.983 536 142.5Z" />
        <path
            d="M472.5 130.318C472.5 127.105 475.105 124.5 478.318 124.5L545.682 124.5C548.895 124.5 551.5 127.105 551.5 130.318L551.5 278.682C551.5 281.895 548.895 284.5 545.682 284.5L478.318 284.5C475.105 284.5 472.5 281.895 472.5 278.682Z"
            stroke="#000000" stroke-width="4.66667" stroke-miterlimit="8" fill="#F2F2F2" fill-rule="evenodd" />
        <path
            d="M0 2.09404C-4.50263e-16 0.937532 0.937525 -4.50267e-16 2.09402 0L111.079 0C112.235 -4.50267e-16 113.173 0.937532 113.173 2.09404L113.173 10.4701C113.173 11.6266 112.235 12.5641 111.079 12.5641L2.09402 12.5641C0.937525 12.5641 0 11.6266 0 10.4701Z"
            stroke="#000000" stroke-width="2" stroke-miterlimit="8" fill="#E1F7FF" fill-rule="evenodd"
            transform="matrix(0.707107 0.707107 0.707107 -0.707107 697.218 160.836)" />
        <path d="M715.276 161.365 706.27 170.372" stroke="#000000" stroke-width="1.66667" stroke-miterlimit="8"
            fill="none" fill-rule="evenodd" />
        <path d="M722.916 169.005 713.909 178.012" stroke="#000000" stroke-width="1.66667" stroke-miterlimit="8"
            fill="none" fill-rule="evenodd" />
        <path d="M730.556 176.645 721.549 185.652" stroke="#000000" stroke-width="1.66667" stroke-miterlimit="8"
            fill="none" fill-rule="evenodd" />
        <path d="M738.196 184.285 729.189 193.292" stroke="#000000" stroke-width="1.66667" stroke-miterlimit="8"
            fill="none" fill-rule="evenodd" />
        <path d="M745.836 191.924 736.829 200.931" stroke="#000000" stroke-width="1.66667" stroke-miterlimit="8"
            fill="none" fill-rule="evenodd" />
        <path d="M753.475 199.564 744.468 208.571" stroke="#000000" stroke-width="1.66667" stroke-miterlimit="8"
            fill="none" fill-rule="evenodd" />
        <path d="M761.115 207.204 752.108 216.211" stroke="#000000" stroke-width="1.66667" stroke-miterlimit="8"
            fill="none" fill-rule="evenodd" />
        <path d="M768.755 214.844 759.748 223.851" stroke="#000000" stroke-width="1.66667" stroke-miterlimit="8"
            fill="none" fill-rule="evenodd" />
        <path d="M776.395 222.484 767.388 231.491" stroke="#000000" stroke-width="1.66667" stroke-miterlimit="8"
            fill="none" fill-rule="evenodd" />
        <path
            d="M0 6.24248C0 2.79485 2.79485-2.411e-15 6.24247-3.21467e-15L195.758 0C199.205-1.60733e-15 202 2.79485 202 6.24248L202 173.758C202 177.205 199.205 180 195.758 180L6.24247 180C2.79485 180 -8.03665e-16 177.205 0 173.758Z"
            stroke="#000000" stroke-width="4.66667" stroke-miterlimit="8" stroke-dasharray="14 4.66667" fill="#F7F7F7"
            fill-rule="evenodd" transform="matrix(1 0 0 -1 1161.5 542.5)" />
        <path
            d="M1203.47 382.5 1233.65 448.473 1421.44 448.473 1461.5 448.511 1461.5 487.5 1401.9 487.5 1401.9 487.5 1241.03 487.5 1225.35 472.331 1224.24 472.841 1222.95 470.012 1203.87 451.565 1203.87 448.473 1213.1 448.473 1186.5 390.335 1203.47 382.5Z"
            fill="#F22F47" fill-rule="evenodd" />
        <path
            d="M1203.26 382.046C1203.38 381.99 1203.52 381.985 1203.64 382.031 1203.76 382.077 1203.87 382.171 1203.92 382.292L1234.1 448.265 1233.65 447.973 1421.44 447.973 1461.5 448.011C1461.78 448.012 1462 448.235 1462 448.511L1462 487.5C1462 487.776 1461.78 488 1461.5 488L1401.9 488C1401.62 488 1401.4 487.776 1401.4 487.5L1401.4 487.5 1401.9 488 1241.03 488C1240.91 488 1240.78 487.95 1240.69 487.859L1225 472.69 1225.56 472.785 1224.45 473.295C1224.33 473.35 1224.19 473.356 1224.07 473.31 1223.94 473.264 1223.84 473.17 1223.79 473.049L1222.49 470.22 1222.6 470.371 1203.52 451.924C1203.42 451.83 1203.37 451.7 1203.37 451.565L1203.37 448.473C1203.37 448.197 1203.59 447.973 1203.87 447.973L1213.1 447.973 1212.64 448.681 1186.05 390.543C1185.93 390.293 1186.04 389.997 1186.29 389.881ZM1186.71 390.789 1186.95 390.127 1213.55 448.265C1213.62 448.42 1213.61 448.6 1213.52 448.743 1213.42 448.886 1213.27 448.973 1213.1 448.973L1203.87 448.973 1204.37 448.473 1204.37 451.565 1204.22 451.205 1223.3 469.653C1223.34 469.696 1223.38 469.747 1223.4 469.804L1224.7 472.633 1224.03 472.387 1225.14 471.877C1225.32 471.79 1225.55 471.828 1225.69 471.971L1241.38 487.141 1241.03 487 1401.9 487C1402.17 487 1402.4 487.224 1402.4 487.5L1402.4 487.5 1401.9 487 1461.5 487 1461 487.5 1461 448.511 1461.5 449.011 1421.44 448.973 1233.65 448.973C1233.45 448.973 1233.27 448.859 1233.19 448.681L1203.01 382.708 1203.68 382.954Z" />
        <path
            d="M1288.5 441.579C1288.5 439.879 1289.88 438.5 1291.58 438.5L1328.42 438.5C1330.12 438.5 1331.5 439.879 1331.5 441.579L1331.5 494.421C1331.5 496.121 1330.12 497.5 1328.42 497.5L1291.58 497.5C1289.88 497.5 1288.5 496.121 1288.5 494.421Z"
            stroke="#000000" stroke-width="4.66667" stroke-miterlimit="8" fill="#F2F2F2" fill-rule="evenodd" />
        <path d="M0 0 6.70524 366 0 732 23 732 16.2948 366 23 0Z" fill="#F22F47" fill-rule="evenodd"
            transform="matrix(1.83697e-16 1 1 -1.83697e-16 375.5 457.5)" />
        <path
            d="M0 0.5 0.499916-0.00915863 7.20516 365.991 0.499916 732.009 0 731.5 23 731.5 22.5001 732.009 15.7948 366.009 22.5001-0.00915863 23 0.5ZM23-0.5C23.1342-0.5 23.2628-0.446056 23.3568-0.3503 23.4508-0.254544 23.5024-0.125015 23.4999 0.00915863L16.7947 365.991 23.4999 731.991C23.5024 732.125 23.4508 732.255 23.3568 732.35 23.2628 732.446 23.1342 732.5 23 732.5L0 732.5C-0.134196 732.5-0.262759 732.446-0.356777 732.35-0.450795 732.255-0.502374 732.125-0.499916 731.991L6.20533 366.009-0.499916 0.00915863C-0.502374-0.125015-0.450795-0.254544-0.356777-0.3503-0.262759-0.446056-0.134196-0.5 0-0.5Z"
            transform="matrix(1.83697e-16 1 1 -1.83697e-16 375.5 457.5)" />
        <path d="M1112.5 457.5 1208.26 457.5 1239.5 480.5 1112.5 480.5Z" fill="#F22F47" fill-rule="evenodd" />
        <path
            d="M1112 457.5C1112 457.224 1112.22 457 1112.5 457L1208.26 457C1208.37 457 1208.47 457.034 1208.56 457.097L1239.8 480.097C1239.97 480.226 1240.04 480.451 1239.98 480.656 1239.91 480.861 1239.72 481 1239.5 481L1112.5 481C1112.22 481 1112 480.776 1112 480.5ZM1113 480.5 1112.5 480 1239.5 480 1239.2 480.903 1207.97 457.903 1208.26 458 1112.5 458 1113 457.5Z" />
        <path d="M0 38.6461C7.43357 34.5281 14.5133 29.6085 17.499 18.5991 20.4846 7.58964 20.9876 0.02033 33.4848 0"
            stroke="#000000" stroke-width="4.66667" stroke-linecap="round" stroke-miterlimit="8" fill="none"
            fill-rule="evenodd" transform="matrix(0.784773 -0.619783 -0.619783 -0.784773 1617 523.619)" />
        <path
            d="M0 14.3337C-4.39231e-15 6.4174 6.41739-4.39231e-15 14.3336-4.39231e-15L123.666 0C131.583-4.39231e-15 138 6.4174 138 14.3337L138 71.6663C138 79.5826 131.583 86 123.666 86L14.3336 86C6.41739 86-2.19616e-15 79.5826-2.19616e-15 71.6663Z"
            stroke="#000000" stroke-width="4.66667" stroke-miterlimit="8" fill="#F2F2F2" fill-rule="evenodd"
            transform="matrix(1 0 0 -1 1461.5 512.5)" />
        <path
            d="M59.373 28C79.2305 28 97.208 25.0154 110.221 20.1901L119 15.3619 119 12.6382 110.221 7.80994C97.208 2.98461 79.2305 0 59.373 0 39.5157 0 21.5383 2.98461 8.52497 7.80994L0 12.4985 0 15.5015 8.52497 20.1901C21.5383 25.0154 39.5157 28 59.373 28Z"
            stroke="#000000" stroke-width="2" stroke-miterlimit="8" fill="#E1F7FF" fill-rule="evenodd"
            transform="matrix(-1.83697e-16 -1 -1 1.83697e-16 1127 529)" /><text
            font-family="Roboto,Roboto_MSFontService,sans-serif" font-weight="700" font-size="37"
            transform="translate(1473.74 549)">Pulsed <tspan font-size="37" x="16.0867" y="45">laser</tspan></text>
        <path
            d="M1299.5 426.956C1299.5 423.39 1302.39 420.5 1305.96 420.5L1319.04 420.5C1322.61 420.5 1325.5 423.39 1325.5 426.956L1325.5 510.044C1325.5 513.61 1322.61 516.5 1319.04 516.5L1305.96 516.5C1302.39 516.5 1299.5 513.61 1299.5 510.044Z"
            stroke="#000000" stroke-width="4.66667" stroke-miterlimit="8" fill="#F2F2F2" fill-rule="evenodd" />
        <path d="M1188.21 425.176 1268.59 504.85 1259.74 513.773 1179.37 434.099Z" stroke="#000000" stroke-width="2"
            stroke-miterlimit="8" fill="#E1F7FF" fill-rule="evenodd" /><text
            font-family="Roboto,Roboto_MSFontService,sans-serif" font-weight="700" font-size="37"
            transform="translate(1172.19 579)">Attenuator</text>
        <path
            d="M712.5 469.5C712.5 454.036 725.26 441.5 741 441.5 756.74 441.5 769.5 454.036 769.5 469.5 769.5 484.964 756.74 497.5 741 497.5 725.26 497.5 712.5 484.964 712.5 469.5Z"
            stroke="#000000" stroke-width="4.66667" stroke-miterlimit="8" stroke-dasharray="4.66667 4.66667" fill="none"
            fill-rule="evenodd" />
        <path
            d="M723.5 462C723.5 458.41 726.41 455.5 730 455.5 733.59 455.5 736.5 458.41 736.5 462 736.5 465.59 733.59 468.5 730 468.5 726.41 468.5 723.5 465.59 723.5 462Z"
            stroke="#000000" stroke-width="4.66667" stroke-miterlimit="8" fill="#FFFFFF" fill-rule="evenodd" />
        <path
            d="M747.5 476C747.5 472.41 750.41 469.5 754 469.5 757.59 469.5 760.5 472.41 760.5 476 760.5 479.59 757.59 482.5 754 482.5 750.41 482.5 747.5 479.59 747.5 476Z"
            stroke="#000000" stroke-width="4.66667" stroke-miterlimit="8" fill="#FFFFFF" fill-rule="evenodd" />
        <path
            d="M742.5 458C742.5 454.41 745.41 451.5 749 451.5 752.59 451.5 755.5 454.41 755.5 458 755.5 461.59 752.59 464.5 749 464.5 745.41 464.5 742.5 461.59 742.5 458Z"
            stroke="#000000" stroke-width="4.66667" stroke-miterlimit="8" fill="#FFFFFF" fill-rule="evenodd" />
        <path
            d="M727.5 482C727.5 478.41 730.41 475.5 734 475.5 737.59 475.5 740.5 478.41 740.5 482 740.5 485.59 737.59 488.5 734 488.5 730.41 488.5 727.5 485.59 727.5 482Z"
            stroke="#000000" stroke-width="4.66667" stroke-miterlimit="8" fill="#FFFFFF" fill-rule="evenodd" />
        <path
            d="M0 39 0.215385 39 0.430769 39 0.646154 39 0.861538 39 1.06154 39 1.27692 39 1.49231 39 1.70769 38.9759 1.92308 38.9759 2.12308 38.9518 2.33846 38.9518 2.55385 38.9276 2.76923 38.9035 2.98462 38.8553 3.2 38.807 3.4 38.7588 3.61538 38.7106 3.83077 38.6382 4.04615 38.5417 4.24615 38.4453 4.46154 38.3488 4.67692 38.2041 4.89231 38.0594 5.10769 37.9147 5.32308 37.7458 5.52308 37.5529 5.73846 37.3358 5.95385 37.1187 6.16923 36.8776 6.38461 36.6122 6.58462 36.3228 6.8 36.0334 7.01538 35.7199 7.23077 35.3581 7.44615 34.9963 7.64615 34.6104 7.86154 34.1763 8.07692 33.7421 8.29231 33.2597 8.50769 32.7532 8.72308 32.2226 8.92308 31.6438 9.13846 31.0408 9.35385 30.4137 9.56923 29.7384 9.76923 29.039 9.98462 28.2913 10.2 27.5195 10.4154 26.6994 10.6308 25.8553 10.8462 24.987 11.0462 24.0946 11.2615 23.154 11.4769 22.1892 11.6923 21.2004 11.9077 20.2115 12.1231 19.1744 12.3231 18.1373 12.5385 17.0761 12.7538 16.0148 12.9692 14.9536 13.1692 13.8683 13.3846 12.807 13.6 11.7458 13.8154 10.7087 14.0308 9.69573 14.2462 8.68275 14.4462 7.718 14.6615 6.77737 14.8769 5.88497 15.0923 5.04082 15.3077 4.2449 15.5077 3.49722 15.7231 2.82189 15.9385 2.19481 16.1538 1.64007 16.3692 1.18182 16.5692 0.7718 16.7846 0.458256 17 0.217069 17.2154 0.0482375 17.4308 0 17.6308 0 17.8462 0.120594 18.0615 0.313544 18.2769 0.602968 18.4923 0.96475 18.7077 1.39889 18.9077 1.9295 19.1231 2.53247 19.3385 3.23191 19.5538 3.97959 19.7538 4.77551 19.9692 5.6679 20.1846 6.58442 20.4 7.57328 20.6154 8.58627 20.8308 9.67161 21.0308 10.757 21.2462 11.8905 21.4615 13.0241 21.6769 14.1818 21.8769 15.3395 22.0923 16.4972 22.3077 17.679 22.5231 18.8126 22.7385 19.9703 22.9538 21.0798 23.1538 22.1892 23.3692 23.2746 23.5846 24.3117 23.8 25.3247 24.0154 26.2894 24.2308 27.2301 24.4308 28.1466 24.6462 28.9907 24.8615 29.8108 25.0769 30.5826 25.2769 31.3061 25.4923 31.9814 25.7077 32.6327 25.9231 33.2356 26.1385 33.7904 26.3538 34.321 26.5538 34.7792 26.7692 35.2375 26.9846 35.6234 27.2 36.0093 27.4154 36.3469 27.6154 36.6364 27.8308 36.9258 28.0462 37.167 28.2615 37.4082 28.4769 37.6011 28.6769 37.7941 28.8923 37.9388 29.1077 38.0835 29.3231 38.2041 29.5385 38.3247 29.7385 38.4212 29.9538 38.4935 30.1692 38.59 30.3846 38.6382 30.6 38.7106 30.8154 38.7588 31.0154 38.7829 31.2308 38.8312 31.4462 38.8553 31.6615 38.9035 31.8615 38.9276 32.0769 38.9276 32.2923 38.9518 32.5077 38.9759 32.7231 38.9759 32.9385 38.9759 33.1385 39 33.3538 39 33.5692 39 33.7846 39 34 39"
            stroke="#000000" stroke-width="4" stroke-linecap="round" stroke-linejoin="round" stroke-miterlimit="10"
            fill="#F2F2F2" fill-rule="evenodd" transform="matrix(-1 0 0 1 1546 447)" />
        <path d="M1500 487 1511.99 487" stroke="#000000" stroke-width="4" stroke-linecap="round" stroke-linejoin="round"
            stroke-miterlimit="10" fill="#F2F2F2" fill-rule="evenodd" />
        <path d="M1545 487 1556.99 487" stroke="#000000" stroke-width="4" stroke-linecap="round" stroke-linejoin="round"
            stroke-miterlimit="10" fill="#F2F2F2" fill-rule="evenodd" />
        <path
            d="M403.706 444.475 403.706 444.475 403.706 444.475ZM400.111 441.704 403.706 444.475 404.455 446.713C404.739 449.013 403.663 451.367 401.539 452.599L373.263 469 401.539 485.401C404.37 487.044 405.341 490.681 403.706 493.526L403.706 493.525C402.071 496.37 398.45 497.345 395.619 495.702L365.567 478.271 363.205 478.75C357.845 478.751 353.5 474.385 353.5 469 353.5 463.615 357.845 459.25 363.205 459.25L365.567 459.729 395.619 442.298C397.035 441.477 398.648 441.31 400.111 441.704Z"
            stroke="#000000" stroke-width="4.66667" stroke-miterlimit="8" fill="#F2F2F2" fill-rule="evenodd" />
        <path
            d="M1223.97 402.655 1223.97 402.655 1223.97 402.655ZM1224.95 399.142 1223.97 402.655 1222.53 403.886C1220.91 404.787 1218.84 404.69 1217.28 403.474L1196.58 387.291 1192.92 413.31C1192.55 415.915 1190.14 417.73 1187.54 417.363L1187.54 417.363C1184.93 416.996 1183.12 414.586 1183.48 411.981L1187.38 384.328 1186.31 382.709C1184.7 378.709 1186.63 374.158 1190.63 372.543 1194.63 370.928 1199.18 372.862 1200.79 376.862L1201.15 378.768 1223.15 395.968C1224.19 396.778 1224.8 397.932 1224.95 399.142Z"
            stroke="#000000" stroke-width="4.66667" stroke-miterlimit="8" fill="#F2F2F2" fill-rule="evenodd" />
    </g>
</svg>